<svg xmlns="http://www.w3.org/2000/svg" xmlns:xlink="http://www.w3.org/1999/xlink" width="500" zoomAndPan="magnify" viewBox="0 0 375 374.999991" height="500" preserveAspectRatio="xMidYMid meet" version="1.2"><g id="0cf1679edb"><path style=" stroke:none;fill-rule:nonzero;fill:#212529;fill-opacity:1;" d="M 352.113281 375 L 22.886719 375 C 10.34375 375 0.0898438 364.746094 0.0898438 352.113281 L 0.0898438 189.421875 C 0.0898438 176.878906 10.34375 166.625 22.886719 166.625 L 352.113281 166.625 C 364.746094 166.625 375 176.878906 375 189.421875 L 375 352.113281 C 374.910156 364.746094 364.65625 375 352.113281 375 Z M 22.886719 177.976562 C 16.570312 177.976562 11.445312 183.105469 11.445312 189.421875 L 11.445312 352.113281 C 11.445312 358.519531 16.570312 363.648438 22.886719 363.648438 L 352.113281 363.648438 C 358.519531 363.648438 363.648438 358.519531 363.648438 352.113281 L 363.648438 189.421875 C 363.648438 183.105469 358.519531 177.976562 352.113281 177.976562 Z M 22.886719 177.976562 "/><path style=" stroke:none;fill-rule:nonzero;fill:#212529;fill-opacity:1;" d="M 53.007812 224.121094 L 29.847656 224.121094 C 26.640625 224.121094 24.171875 221.558594 24.171875 218.445312 L 24.171875 195.28125 C 24.171875 192.167969 26.640625 189.605469 29.847656 189.605469 L 53.007812 189.605469 C 56.121094 189.605469 58.683594 192.167969 58.683594 195.28125 L 58.683594 218.445312 C 58.683594 221.558594 56.03125 224.121094 53.007812 224.121094 Z M 35.523438 212.769531 L 47.242188 212.769531 L 47.242188 200.957031 L 35.523438 200.957031 Z M 35.523438 212.769531 "/><path style=" stroke:none;fill-rule:nonzero;fill:#212529;fill-opacity:1;" d="M 99.699219 224.121094 L 76.539062 224.121094 C 73.425781 224.121094 70.863281 221.558594 70.863281 218.445312 L 70.863281 195.28125 C 70.863281 192.167969 73.425781 189.605469 76.539062 189.605469 L 99.699219 189.605469 C 102.90625 189.605469 105.378906 192.167969 105.378906 195.28125 L 105.378906 218.445312 C 105.378906 221.558594 102.90625 224.121094 99.699219 224.121094 Z M 82.304688 212.769531 L 94.117188 212.769531 L 94.117188 200.957031 L 82.304688 200.957031 Z M 82.304688 212.769531 "/><path style=" stroke:none;fill-rule:nonzero;fill:#212529;fill-opacity:1;" d="M 146.574219 224.121094 L 123.414062 224.121094 C 120.207031 224.121094 117.738281 221.558594 117.738281 218.445312 L 117.738281 195.28125 C 117.738281 192.167969 120.207031 189.605469 123.414062 189.605469 L 146.574219 189.605469 C 149.6875 189.605469 152.253906 192.167969 152.253906 195.28125 L 152.253906 218.445312 C 152.253906 221.558594 149.6875 224.121094 146.574219 224.121094 Z M 129.089844 212.769531 L 140.898438 212.769531 L 140.898438 200.957031 L 129.089844 200.957031 Z M 129.089844 212.769531 "/><path style=" stroke:none;fill-rule:nonzero;fill:#212529;fill-opacity:1;" d="M 193.269531 224.121094 L 170.195312 224.121094 C 166.992188 224.121094 164.429688 221.558594 164.429688 218.445312 L 164.429688 195.28125 C 164.429688 192.167969 166.992188 189.605469 170.195312 189.605469 L 193.269531 189.605469 C 196.472656 189.605469 198.945312 192.167969 198.945312 195.28125 L 198.945312 218.445312 C 198.945312 221.558594 196.472656 224.121094 193.269531 224.121094 Z M 175.871094 212.769531 L 187.589844 212.769531 L 187.589844 200.957031 L 175.871094 200.957031 Z M 175.871094 212.769531 "/><path style=" stroke:none;fill-rule:nonzero;fill:#212529;fill-opacity:1;" d="M 240.050781 224.121094 L 216.886719 224.121094 C 213.777344 224.121094 211.210938 221.558594 211.210938 218.445312 L 211.210938 195.28125 C 211.210938 192.167969 213.777344 189.605469 216.886719 189.605469 L 240.050781 189.605469 C 243.253906 189.605469 245.726562 192.167969 245.726562 195.28125 L 245.726562 218.445312 C 245.726562 221.558594 243.253906 224.121094 240.050781 224.121094 Z M 222.65625 212.769531 L 234.375 212.769531 L 234.375 200.957031 L 222.65625 200.957031 Z M 222.65625 212.769531 "/><path style=" stroke:none;fill-rule:nonzero;fill:#212529;fill-opacity:1;" d="M 298.371094 224.121094 L 275.207031 224.121094 C 272.09375 224.121094 269.53125 221.558594 269.53125 218.445312 L 269.53125 195.28125 C 269.53125 192.167969 272.09375 189.605469 275.207031 189.605469 L 298.371094 189.605469 C 301.484375 189.605469 304.046875 192.167969 304.046875 195.28125 L 304.046875 218.445312 C 304.046875 221.558594 301.484375 224.121094 298.371094 224.121094 Z M 280.976562 212.769531 L 292.695312 212.769531 L 292.695312 200.957031 L 280.976562 200.957031 Z M 280.976562 212.769531 "/><path style=" stroke:none;fill-rule:nonzero;fill:#212529;fill-opacity:1;" d="M 345.152344 224.121094 L 321.992188 224.121094 C 318.878906 224.121094 316.316406 221.558594 316.316406 218.445312 L 316.316406 195.28125 C 316.316406 192.167969 318.878906 189.605469 321.992188 189.605469 L 345.152344 189.605469 C 348.359375 189.605469 350.828125 192.167969 350.828125 195.28125 L 350.828125 218.445312 C 350.828125 221.558594 348.265625 224.121094 345.152344 224.121094 Z M 327.757812 212.769531 L 339.476562 212.769531 L 339.476562 200.957031 L 327.757812 200.957031 Z M 327.757812 212.769531 "/><path style=" stroke:none;fill-rule:nonzero;fill:#212529;fill-opacity:1;" d="M 53.007812 266.691406 L 29.847656 266.691406 C 26.640625 266.691406 24.171875 264.222656 24.171875 261.015625 L 24.171875 237.855469 C 24.171875 234.742188 26.640625 232.175781 29.847656 232.175781 L 53.007812 232.175781 C 56.121094 232.175781 58.683594 234.742188 58.683594 237.855469 L 58.683594 261.015625 C 58.683594 264.222656 56.03125 266.691406 53.007812 266.691406 Z M 35.523438 255.339844 L 47.242188 255.339844 L 47.242188 243.53125 L 35.523438 243.53125 Z M 35.523438 255.339844 "/><path style=" stroke:none;fill-rule:nonzero;fill:#212529;fill-opacity:1;" d="M 99.699219 266.691406 L 76.539062 266.691406 C 73.425781 266.691406 70.863281 264.222656 70.863281 261.015625 L 70.863281 237.855469 C 70.863281 234.742188 73.425781 232.175781 76.539062 232.175781 L 99.699219 232.175781 C 102.90625 232.175781 105.378906 234.742188 105.378906 237.855469 L 105.378906 261.015625 C 105.378906 264.222656 102.90625 266.691406 99.699219 266.691406 Z M 82.304688 255.339844 L 94.117188 255.339844 L 94.117188 243.53125 L 82.304688 243.53125 Z M 82.304688 255.339844 "/><path style=" stroke:none;fill-rule:nonzero;fill:#212529;fill-opacity:1;" d="M 146.574219 266.691406 L 123.414062 266.691406 C 120.207031 266.691406 117.738281 264.222656 117.738281 261.015625 L 117.738281 237.855469 C 117.738281 234.742188 120.207031 232.175781 123.414062 232.175781 L 146.574219 232.175781 C 149.6875 232.175781 152.253906 234.742188 152.253906 237.855469 L 152.253906 261.015625 C 152.253906 264.222656 149.6875 266.691406 146.574219 266.691406 Z M 129.089844 255.339844 L 140.898438 255.339844 L 140.898438 243.53125 L 129.089844 243.53125 Z M 129.089844 255.339844 "/><path style=" stroke:none;fill-rule:nonzero;fill:#212529;fill-opacity:1;" d="M 193.269531 266.691406 L 170.195312 266.691406 C 166.992188 266.691406 164.429688 264.222656 164.429688 261.015625 L 164.429688 237.855469 C 164.429688 234.742188 166.992188 232.175781 170.195312 232.175781 L 193.269531 232.175781 C 196.472656 232.175781 198.945312 234.742188 198.945312 237.855469 L 198.945312 261.015625 C 198.945312 264.222656 196.472656 266.691406 193.269531 266.691406 Z M 175.871094 255.339844 L 187.589844 255.339844 L 187.589844 243.53125 L 175.871094 243.53125 Z M 175.871094 255.339844 "/><path style=" stroke:none;fill-rule:nonzero;fill:#212529;fill-opacity:1;" d="M 240.050781 266.691406 L 216.886719 266.691406 C 213.777344 266.691406 211.210938 264.222656 211.210938 261.015625 L 211.210938 237.855469 C 211.210938 234.742188 213.777344 232.175781 216.886719 232.175781 L 240.050781 232.175781 C 243.253906 232.175781 245.726562 234.742188 245.726562 237.855469 L 245.726562 261.015625 C 245.726562 264.222656 243.253906 266.691406 240.050781 266.691406 Z M 222.65625 255.339844 L 234.375 255.339844 L 234.375 243.53125 L 222.65625 243.53125 Z M 222.65625 255.339844 "/><path style=" stroke:none;fill-rule:nonzero;fill:#212529;fill-opacity:1;" d="M 298.371094 266.691406 L 275.207031 266.691406 C 272.09375 266.691406 269.53125 264.222656 269.53125 261.015625 L 269.53125 237.855469 C 269.53125 234.742188 272.09375 232.175781 275.207031 232.175781 L 298.371094 232.175781 C 301.484375 232.175781 304.046875 234.742188 304.046875 237.855469 L 304.046875 261.015625 C 304.046875 264.222656 301.484375 266.691406 298.371094 266.691406 Z M 280.976562 255.339844 L 292.695312 255.339844 L 292.695312 243.53125 L 280.976562 243.53125 Z M 280.976562 255.339844 "/><path style=" stroke:none;fill-rule:nonzero;fill:#212529;fill-opacity:1;" d="M 345.152344 266.691406 L 321.992188 266.691406 C 318.878906 266.691406 316.316406 264.222656 316.316406 261.015625 L 316.316406 237.855469 C 316.316406 234.742188 318.878906 232.175781 321.992188 232.175781 L 345.152344 232.175781 C 348.359375 232.175781 350.828125 234.742188 350.828125 237.855469 L 350.828125 261.015625 C 350.828125 264.222656 348.265625 266.691406 345.152344 266.691406 Z M 327.757812 255.339844 L 339.476562 255.339844 L 339.476562 243.53125 L 327.757812 243.53125 Z M 327.757812 255.339844 "/><path style=" stroke:none;fill-rule:nonzero;fill:#212529;fill-opacity:1;" d="M 53.007812 309.355469 L 29.847656 309.355469 C 26.640625 309.355469 24.171875 306.882812 24.171875 303.679688 L 24.171875 280.515625 C 24.171875 277.40625 26.640625 274.839844 29.847656 274.839844 L 53.007812 274.839844 C 56.121094 274.839844 58.683594 277.40625 58.683594 280.515625 L 58.683594 303.679688 C 58.683594 306.792969 56.03125 309.355469 53.007812 309.355469 Z M 35.523438 298.003906 L 47.242188 298.003906 L 47.242188 286.195312 L 35.523438 286.195312 Z M 35.523438 298.003906 "/><path style=" stroke:none;fill-rule:nonzero;fill:#212529;fill-opacity:1;" d="M 99.699219 309.355469 L 76.539062 309.355469 C 73.425781 309.355469 70.863281 306.882812 70.863281 303.679688 L 70.863281 280.515625 C 70.863281 277.40625 73.425781 274.839844 76.539062 274.839844 L 99.699219 274.839844 C 102.90625 274.839844 105.378906 277.40625 105.378906 280.515625 L 105.378906 303.679688 C 105.378906 306.792969 102.90625 309.355469 99.699219 309.355469 Z M 82.304688 298.003906 L 94.117188 298.003906 L 94.117188 286.195312 L 82.304688 286.195312 Z M 82.304688 298.003906 "/><path style=" stroke:none;fill-rule:nonzero;fill:#212529;fill-opacity:1;" d="M 146.574219 309.355469 L 123.414062 309.355469 C 120.207031 309.355469 117.738281 306.882812 117.738281 303.679688 L 117.738281 280.515625 C 117.738281 277.40625 120.207031 274.839844 123.414062 274.839844 L 146.574219 274.839844 C 149.6875 274.839844 152.253906 277.40625 152.253906 280.515625 L 152.253906 303.679688 C 152.253906 306.792969 149.6875 309.355469 146.574219 309.355469 Z M 129.089844 298.003906 L 140.898438 298.003906 L 140.898438 286.195312 L 129.089844 286.195312 Z M 129.089844 298.003906 "/><path style=" stroke:none;fill-rule:nonzero;fill:#212529;fill-opacity:1;" d="M 193.269531 309.355469 L 170.195312 309.355469 C 166.992188 309.355469 164.429688 306.882812 164.429688 303.679688 L 164.429688 280.515625 C 164.429688 277.40625 166.992188 274.839844 170.195312 274.839844 L 193.269531 274.839844 C 196.472656 274.839844 198.945312 277.40625 198.945312 280.515625 L 198.945312 303.679688 C 198.945312 306.792969 196.472656 309.355469 193.269531 309.355469 Z M 175.871094 298.003906 L 187.589844 298.003906 L 187.589844 286.195312 L 175.871094 286.195312 Z M 175.871094 298.003906 "/><path style=" stroke:none;fill-rule:nonzero;fill:#212529;fill-opacity:1;" d="M 240.050781 309.355469 L 216.886719 309.355469 C 213.777344 309.355469 211.210938 306.882812 211.210938 303.679688 L 211.210938 280.515625 C 211.210938 277.40625 213.777344 274.839844 216.886719 274.839844 L 240.050781 274.839844 C 243.253906 274.839844 245.726562 277.40625 245.726562 280.515625 L 245.726562 303.679688 C 245.726562 306.792969 243.253906 309.355469 240.050781 309.355469 Z M 222.65625 298.003906 L 234.375 298.003906 L 234.375 286.195312 L 222.65625 286.195312 Z M 222.65625 298.003906 "/><path style=" stroke:none;fill-rule:nonzero;fill:#212529;fill-opacity:1;" d="M 298.371094 309.355469 L 275.207031 309.355469 C 272.09375 309.355469 269.53125 306.882812 269.53125 303.679688 L 269.53125 280.515625 C 269.53125 277.40625 272.09375 274.839844 275.207031 274.839844 L 298.371094 274.839844 C 301.484375 274.839844 304.046875 277.40625 304.046875 280.515625 L 304.046875 303.679688 C 304.046875 306.792969 301.484375 309.355469 298.371094 309.355469 Z M 280.976562 298.003906 L 292.695312 298.003906 L 292.695312 286.195312 L 280.976562 286.195312 Z M 280.976562 298.003906 "/><path style=" stroke:none;fill-rule:nonzero;fill:#212529;fill-opacity:1;" d="M 345.152344 351.929688 L 321.992188 351.929688 C 318.878906 351.929688 316.316406 349.457031 316.316406 346.253906 L 316.316406 280.515625 C 316.316406 277.40625 318.878906 274.839844 321.992188 274.839844 L 345.152344 274.839844 C 348.359375 274.839844 350.828125 277.40625 350.828125 280.515625 L 350.828125 346.253906 C 350.828125 349.457031 348.265625 351.929688 345.152344 351.929688 Z M 327.757812 340.574219 L 339.476562 340.574219 L 339.476562 286.195312 L 327.757812 286.195312 Z M 327.757812 340.574219 "/><path style=" stroke:none;fill-rule:nonzero;fill:#212529;fill-opacity:1;" d="M 53.007812 351.929688 L 29.847656 351.929688 C 26.640625 351.929688 24.171875 349.457031 24.171875 346.253906 L 24.171875 323.179688 C 24.171875 319.976562 26.640625 317.503906 29.847656 317.503906 L 53.007812 317.503906 C 56.121094 317.503906 58.683594 319.976562 58.683594 323.179688 L 58.683594 346.253906 C 58.683594 349.457031 56.03125 351.929688 53.007812 351.929688 Z M 35.523438 340.574219 L 47.242188 340.574219 L 47.242188 328.855469 L 35.523438 328.855469 Z M 35.523438 340.574219 "/><path style=" stroke:none;fill-rule:nonzero;fill:#212529;fill-opacity:1;" d="M 193.359375 351.929688 L 76.628906 351.929688 C 73.515625 351.929688 70.953125 349.457031 70.953125 346.253906 L 70.953125 323.179688 C 70.953125 319.976562 73.515625 317.503906 76.628906 317.503906 L 193.359375 317.503906 C 196.5625 317.503906 199.035156 319.976562 199.035156 323.179688 L 199.035156 346.253906 C 199.035156 349.457031 196.472656 351.929688 193.359375 351.929688 Z M 82.304688 340.574219 L 187.683594 340.574219 L 187.683594 328.855469 L 82.304688 328.855469 Z M 82.304688 340.574219 "/><path style=" stroke:none;fill-rule:nonzero;fill:#212529;fill-opacity:1;" d="M 240.050781 351.929688 L 216.886719 351.929688 C 213.777344 351.929688 211.210938 349.457031 211.210938 346.253906 L 211.210938 323.179688 C 211.210938 319.976562 213.777344 317.503906 216.886719 317.503906 L 240.050781 317.503906 C 243.253906 317.503906 245.726562 319.976562 245.726562 323.179688 L 245.726562 346.253906 C 245.726562 349.457031 243.253906 351.929688 240.050781 351.929688 Z M 222.65625 340.574219 L 234.375 340.574219 L 234.375 328.855469 L 222.65625 328.855469 Z M 222.65625 340.574219 "/><path style=" stroke:none;fill-rule:nonzero;fill:#212529;fill-opacity:1;" d="M 298.371094 351.929688 L 275.207031 351.929688 C 272.09375 351.929688 269.53125 349.457031 269.53125 346.253906 L 269.53125 323.179688 C 269.53125 319.976562 272.09375 317.503906 275.207031 317.503906 L 298.371094 317.503906 C 301.484375 317.503906 304.046875 319.976562 304.046875 323.179688 L 304.046875 346.253906 C 304.046875 349.457031 301.484375 351.929688 298.371094 351.929688 Z M 280.976562 340.574219 L 292.695312 340.574219 L 292.695312 328.855469 L 280.976562 328.855469 Z M 280.976562 340.574219 "/><path style=" stroke:none;fill-rule:nonzero;fill:#212529;fill-opacity:1;" d="M 219.726562 177.976562 C 216.523438 177.976562 214.050781 175.414062 214.050781 172.300781 L 214.050781 158.570312 C 214.050781 155.363281 211.394531 152.710938 208.191406 152.710938 L 166.808594 152.710938 C 163.605469 152.710938 160.949219 155.363281 160.949219 158.570312 L 160.949219 172.300781 C 160.949219 175.414062 158.476562 177.976562 155.273438 177.976562 C 152.070312 177.976562 149.597656 175.414062 149.597656 172.300781 L 149.597656 158.570312 C 149.597656 149.046875 157.289062 141.355469 166.71875 141.355469 L 208.097656 141.355469 C 217.621094 141.355469 225.3125 149.046875 225.3125 158.570312 L 225.3125 172.300781 C 225.402344 175.414062 222.839844 177.976562 219.726562 177.976562 Z M 219.726562 177.976562 "/><path style=" stroke:none;fill-rule:nonzero;fill:#212529;fill-opacity:1;" d="M 304.320312 145.84375 C 304.136719 145.84375 303.953125 145.84375 303.773438 145.84375 C 293.792969 145.75 284.453125 141.632812 277.585938 134.308594 C 265.867188 121.855469 252.042969 108.308594 236.570312 94.023438 C 229.15625 87.15625 225.035156 77.910156 224.851562 67.933594 C 224.671875 57.859375 228.425781 48.523438 235.472656 41.382812 L 236.023438 40.832031 C 243.074219 33.78125 252.503906 29.9375 262.480469 30.027344 C 272.550781 30.210938 281.800781 34.332031 288.664062 41.65625 C 303.039062 57.039062 316.679688 70.863281 329.132812 82.488281 C 336.457031 89.355469 340.574219 98.695312 340.757812 108.671875 C 340.941406 118.652344 337.1875 127.992188 330.140625 135.039062 C 323.179688 142 314.027344 145.84375 304.320312 145.84375 Z M 285.734375 126.527344 C 290.589844 131.5625 296.996094 134.398438 303.953125 134.492188 C 310.820312 134.492188 317.230469 131.925781 321.992188 127.074219 C 326.84375 122.222656 329.5 115.8125 329.316406 108.949219 C 329.222656 101.988281 326.386719 95.582031 321.257812 90.820312 C 308.625 79.011719 294.800781 65.003906 280.242188 49.4375 C 275.480469 44.402344 269.164062 41.566406 262.207031 41.382812 C 262.117188 41.382812 261.933594 41.382812 261.839844 41.382812 C 255.066406 41.382812 248.75 44.035156 243.988281 48.796875 L 243.4375 49.4375 C 238.496094 54.289062 235.929688 60.789062 236.113281 67.65625 C 236.207031 74.617188 239.042969 80.933594 244.171875 85.691406 C 259.828125 100.160156 273.835938 113.890625 285.734375 126.527344 Z M 285.734375 126.527344 "/><path style=" stroke:none;fill-rule:nonzero;fill:#212529;fill-opacity:1;" d="M 250.214844 104.734375 C 247.46875 104.734375 244.996094 102.8125 244.539062 99.976562 C 244.078125 96.953125 246.183594 94.023438 249.296875 93.476562 C 271.726562 89.722656 284.453125 76.996094 288.023438 54.472656 C 288.574219 51.359375 291.414062 49.253906 294.523438 49.804688 C 297.636719 50.355469 299.742188 53.191406 299.195312 56.304688 C 294.800781 83.863281 278.59375 100.160156 251.039062 104.734375 C 250.761719 104.734375 250.488281 104.734375 250.214844 104.734375 Z M 250.214844 104.734375 "/><path style=" stroke:none;fill-rule:nonzero;fill:#212529;fill-opacity:1;" d="M 263.761719 74.707031 C 262.296875 74.707031 260.832031 74.15625 259.734375 73.058594 L 250.945312 64.363281 C 248.75 62.074219 248.75 58.503906 250.945312 56.304688 C 253.144531 54.109375 256.714844 54.109375 259.003906 56.304688 L 267.792969 65.003906 C 269.988281 67.292969 269.988281 70.863281 267.792969 73.058594 C 266.601562 74.15625 265.226562 74.707031 263.761719 74.707031 Z M 263.761719 74.707031 "/><path style=" stroke:none;fill-rule:nonzero;fill:#212529;fill-opacity:1;" d="M 239.410156 51.085938 C 237.945312 51.085938 236.480469 50.535156 235.382812 49.4375 L 217.988281 32.136719 C 215.789062 29.9375 212.953125 28.746094 209.839844 28.746094 L 190.0625 28.746094 C 177.429688 28.746094 167.082031 18.402344 167.082031 5.769531 C 167.082031 2.5625 169.648438 0.0898438 172.761719 0.0898438 C 175.964844 0.0898438 178.4375 2.5625 178.4375 5.769531 C 178.4375 12.085938 183.65625 17.304688 190.0625 17.304688 L 209.839844 17.304688 C 215.972656 17.304688 221.742188 19.777344 226.042969 24.078125 L 243.4375 41.382812 C 245.636719 43.671875 245.636719 47.242188 243.4375 49.4375 C 242.339844 50.535156 240.875 51.085938 239.410156 51.085938 Z M 239.410156 51.085938 "/><path style=" stroke:none;fill-rule:nonzero;fill:#212529;fill-opacity:1;" d="M 187.5 152.710938 C 184.296875 152.710938 181.824219 150.238281 181.824219 147.035156 C 181.824219 136.78125 173.492188 128.539062 163.238281 128.539062 L 75.988281 128.539062 C 63.261719 128.539062 52.917969 118.101562 52.917969 105.378906 C 52.917969 92.652344 63.261719 82.304688 75.988281 82.304688 L 107.300781 82.304688 C 116.179688 82.304688 123.414062 75.074219 123.414062 66.191406 L 123.414062 5.675781 C 123.414062 2.5625 125.976562 0 129.089844 0 C 132.203125 0 134.765625 2.5625 134.765625 5.675781 L 134.765625 66.191406 C 134.765625 81.296875 122.496094 93.660156 107.300781 93.660156 L 75.988281 93.660156 C 69.488281 93.660156 64.269531 98.875 64.269531 105.378906 C 64.269531 111.785156 69.578125 117.097656 75.988281 117.097656 L 163.238281 117.097656 C 179.808594 117.097656 193.175781 130.460938 193.175781 147.035156 C 193.175781 150.238281 190.703125 152.710938 187.5 152.710938 Z M 187.5 152.710938 "/></g></svg>