<svg xmlns="http://www.w3.org/2000/svg" xmlns:xlink="http://www.w3.org/1999/xlink" width="500" zoomAndPan="magnify" viewBox="0 0 375 374.999991" height="500" preserveAspectRatio="xMidYMid meet" version="1.2"><defs><clipPath id="af270b1b6f"><path d="M 0 46.703125 L 375 46.703125 L 375 327.953125 L 0 327.953125 Z M 0 46.703125 "/></clipPath></defs><g id="92a28c1005"><g clip-rule="nonzero" clip-path="url(#af270b1b6f)"><path style=" stroke:none;fill-rule:nonzero;fill:#212529;fill-opacity:1;" d="M 350.746094 88.441406 L 143.160156 88.441406 L 143.160156 54.097656 C 143.160156 53.628906 143.117188 53.164062 143.023438 52.703125 C 142.933594 52.242188 142.796875 51.792969 142.617188 51.359375 C 142.4375 50.925781 142.214844 50.511719 141.957031 50.121094 C 141.695312 49.730469 141.398438 49.371094 141.066406 49.039062 C 140.734375 48.707031 140.371094 48.410156 139.980469 48.148438 C 139.589844 47.886719 139.175781 47.667969 138.742188 47.484375 C 138.308594 47.304688 137.859375 47.171875 137.398438 47.078125 C 136.9375 46.988281 136.472656 46.941406 136.003906 46.941406 L 7.15625 46.941406 C 6.6875 46.941406 6.222656 46.988281 5.761719 47.078125 C 5.300781 47.171875 4.851562 47.304688 4.417969 47.484375 C 3.984375 47.667969 3.570312 47.886719 3.179688 48.148438 C 2.789062 48.410156 2.429688 48.707031 2.097656 49.039062 C 1.765625 49.371094 1.46875 49.730469 1.207031 50.121094 C 0.945312 50.511719 0.726562 50.925781 0.542969 51.359375 C 0.363281 51.792969 0.230469 52.242188 0.136719 52.703125 C 0.046875 53.164062 0 53.628906 0 54.097656 L 0 320.488281 C 0 320.957031 0.046875 321.421875 0.136719 321.882812 C 0.230469 322.34375 0.363281 322.792969 0.542969 323.226562 C 0.726562 323.660156 0.945312 324.074219 1.207031 324.464844 C 1.46875 324.855469 1.765625 325.21875 2.097656 325.550781 C 2.429688 325.882812 2.789062 326.179688 3.179688 326.441406 C 3.570312 326.699219 3.984375 326.921875 4.417969 327.101562 C 4.851562 327.28125 5.300781 327.417969 5.761719 327.507812 C 6.222656 327.601562 6.6875 327.644531 7.15625 327.644531 L 136.003906 327.644531 C 136.472656 327.644531 136.9375 327.601562 137.398438 327.507812 C 137.859375 327.417969 138.308594 327.28125 138.742188 327.101562 C 139.175781 326.921875 139.589844 326.699219 139.980469 326.441406 C 140.371094 326.179688 140.734375 325.882812 141.066406 325.550781 C 141.398438 325.21875 141.695312 324.855469 141.957031 324.464844 C 142.214844 324.074219 142.4375 323.660156 142.617188 323.226562 C 142.796875 322.792969 142.933594 322.34375 143.023438 321.882812 C 143.117188 321.421875 143.160156 320.957031 143.160156 320.488281 L 143.160156 270.078125 L 215.996094 270.078125 C 214.929688 277.917969 212.722656 285.421875 209.375 292.589844 C 208.328125 292.875 207.3125 293.246094 206.328125 293.699219 C 205.339844 294.152344 204.398438 294.679688 203.5 295.285156 C 202.597656 295.890625 201.753906 296.566406 200.964844 297.308594 C 200.171875 298.050781 199.449219 298.855469 198.789062 299.714844 C 198.128906 300.578125 197.542969 301.484375 197.03125 302.441406 C 196.519531 303.398438 196.089844 304.390625 195.738281 305.414062 C 195.386719 306.441406 195.121094 307.488281 194.941406 308.558594 C 194.761719 309.628906 194.667969 310.707031 194.664062 311.789062 L 194.664062 320.433594 C 194.664062 320.90625 194.710938 321.371094 194.800781 321.832031 C 194.894531 322.292969 195.03125 322.738281 195.210938 323.171875 C 195.390625 323.609375 195.609375 324.019531 195.871094 324.410156 C 196.132812 324.800781 196.429688 325.164062 196.761719 325.496094 C 197.09375 325.828125 197.453125 326.125 197.84375 326.386719 C 198.238281 326.648438 198.648438 326.867188 199.082031 327.046875 C 199.515625 327.226562 199.964844 327.363281 200.425781 327.453125 C 200.886719 327.546875 201.351562 327.59375 201.824219 327.59375 L 269.824219 327.59375 C 270.292969 327.59375 270.761719 327.546875 271.222656 327.453125 C 271.683594 327.363281 272.128906 327.226562 272.5625 327.046875 C 272.996094 326.867188 273.410156 326.648438 273.800781 326.386719 C 274.191406 326.125 274.554688 325.828125 274.886719 325.496094 C 275.21875 325.164062 275.515625 324.800781 275.777344 324.410156 C 276.039062 324.019531 276.257812 323.609375 276.4375 323.171875 C 276.617188 322.738281 276.753906 322.292969 276.84375 321.832031 C 276.9375 321.371094 276.984375 320.90625 276.984375 320.433594 L 276.984375 311.789062 C 276.980469 310.703125 276.890625 309.625 276.714844 308.554688 C 276.535156 307.480469 276.273438 306.433594 275.925781 305.402344 C 275.574219 304.375 275.144531 303.378906 274.636719 302.421875 C 274.125 301.460938 273.539062 300.550781 272.882812 299.6875 C 272.222656 298.824219 271.496094 298.019531 270.707031 297.273438 C 269.917969 296.527344 269.074219 295.851562 268.171875 295.242188 C 267.273438 294.636719 266.328125 294.105469 265.339844 293.648438 C 264.355469 293.195312 263.335938 292.824219 262.289062 292.535156 C 258.941406 285.367188 256.734375 277.863281 255.667969 270.023438 L 350.746094 270.023438 C 351.523438 270.023438 352.296875 269.984375 353.070312 269.90625 C 353.84375 269.832031 354.609375 269.71875 355.371094 269.566406 C 356.132812 269.414062 356.886719 269.222656 357.628906 269 C 358.371094 268.773438 359.101562 268.511719 359.816406 268.214844 C 360.535156 267.917969 361.234375 267.585938 361.921875 267.21875 C 362.605469 266.851562 363.269531 266.453125 363.914062 266.023438 C 364.5625 265.589844 365.183594 265.128906 365.785156 264.636719 C 366.382812 264.144531 366.957031 263.621094 367.507812 263.074219 C 368.058594 262.523438 368.578125 261.949219 369.070312 261.351562 C 369.5625 260.75 370.023438 260.125 370.457031 259.480469 C 370.886719 258.835938 371.285156 258.171875 371.652344 257.484375 C 372.019531 256.800781 372.351562 256.101562 372.648438 255.382812 C 372.945312 254.667969 373.207031 253.9375 373.433594 253.191406 C 373.660156 252.449219 373.847656 251.699219 374 250.9375 C 374.152344 250.175781 374.265625 249.410156 374.34375 248.636719 C 374.417969 247.863281 374.457031 247.089844 374.457031 246.3125 L 374.457031 112.097656 C 374.457031 111.324219 374.414062 110.550781 374.335938 109.777344 C 374.257812 109.007812 374.144531 108.242188 373.988281 107.480469 C 373.835938 106.722656 373.648438 105.96875 373.421875 105.230469 C 373.195312 104.488281 372.929688 103.757812 372.632812 103.042969 C 372.335938 102.328125 372.003906 101.628906 371.636719 100.945312 C 371.269531 100.261719 370.871094 99.597656 370.4375 98.953125 C 370.007812 98.3125 369.542969 97.691406 369.050781 97.089844 C 368.558594 96.492188 368.039062 95.917969 367.488281 95.371094 C 366.941406 94.824219 366.367188 94.304688 365.765625 93.8125 C 365.167969 93.320312 364.542969 92.859375 363.898438 92.429688 C 363.253906 92 362.589844 91.601562 361.90625 91.238281 C 361.222656 90.871094 360.523438 90.542969 359.804688 90.246094 C 359.089844 89.949219 358.359375 89.6875 357.617188 89.460938 C 356.875 89.238281 356.125 89.050781 355.363281 88.898438 C 354.605469 88.746094 353.839844 88.632812 353.066406 88.554688 C 352.296875 88.480469 351.523438 88.441406 350.746094 88.441406 Z M 350.746094 102.757812 C 351.363281 102.757812 351.972656 102.820312 352.578125 102.941406 C 353.183594 103.0625 353.769531 103.238281 354.339844 103.476562 C 354.910156 103.714844 355.449219 104.003906 355.960938 104.34375 C 356.472656 104.6875 356.949219 105.078125 357.386719 105.511719 C 357.820312 105.949219 358.210938 106.421875 358.554688 106.9375 C 358.894531 107.449219 359.183594 107.988281 359.421875 108.558594 C 359.660156 109.128906 359.835938 109.714844 359.957031 110.320312 C 360.078125 110.925781 360.140625 111.535156 360.140625 112.152344 L 360.140625 220.867188 L 143.160156 220.867188 L 143.160156 102.757812 Z M 128.847656 313.328125 L 14.316406 313.328125 L 14.316406 61.257812 L 128.847656 61.257812 Z M 262.667969 313.328125 L 208.980469 313.328125 L 208.980469 311.789062 C 208.980469 311.417969 209.015625 311.050781 209.089844 310.6875 C 209.160156 310.320312 209.269531 309.96875 209.410156 309.625 C 209.550781 309.28125 209.726562 308.953125 209.933594 308.644531 C 210.140625 308.335938 210.375 308.050781 210.636719 307.785156 C 210.898438 307.523438 211.183594 307.289062 211.492188 307.082031 C 211.800781 306.875 212.128906 306.699219 212.46875 306.554688 C 212.8125 306.410156 213.167969 306.304688 213.53125 306.230469 C 213.894531 306.15625 214.265625 306.121094 214.636719 306.117188 L 257.011719 306.117188 C 257.382812 306.121094 257.75 306.15625 258.117188 306.230469 C 258.480469 306.304688 258.832031 306.410156 259.175781 306.554688 C 259.519531 306.699219 259.847656 306.875 260.15625 307.082031 C 260.464844 307.289062 260.75 307.523438 261.011719 307.785156 C 261.273438 308.050781 261.507812 308.335938 261.714844 308.644531 C 261.921875 308.953125 262.09375 309.28125 262.234375 309.625 C 262.378906 309.96875 262.484375 310.320312 262.558594 310.6875 C 262.628906 311.050781 262.667969 311.417969 262.667969 311.789062 Z M 246.5625 291.855469 L 225.140625 291.855469 C 227.894531 284.839844 229.628906 277.578125 230.347656 270.078125 L 241.300781 270.078125 C 242.027344 277.578125 243.761719 284.835938 246.507812 291.855469 Z M 350.746094 255.761719 L 143.160156 255.761719 L 143.160156 235.179688 L 360.195312 235.179688 L 360.195312 246.367188 C 360.195312 246.984375 360.132812 247.597656 360.011719 248.203125 C 359.886719 248.8125 359.707031 249.398438 359.46875 249.972656 C 359.230469 250.542969 358.941406 251.085938 358.59375 251.597656 C 358.25 252.113281 357.859375 252.585938 357.417969 253.023438 C 356.980469 253.460938 356.503906 253.847656 355.988281 254.191406 C 355.472656 254.53125 354.929688 254.820312 354.355469 255.054688 C 353.785156 255.292969 353.195312 255.46875 352.585938 255.585938 C 351.980469 255.707031 351.367188 255.761719 350.746094 255.761719 Z M 350.746094 255.761719 "/></g><path style=" stroke:none;fill-rule:nonzero;fill:#212529;fill-opacity:1;" d="M 241.335938 237.578125 L 230.3125 237.578125 C 229.839844 237.578125 229.375 237.625 228.914062 237.71875 C 228.453125 237.808594 228.007812 237.945312 227.574219 238.125 C 227.136719 238.304688 226.726562 238.523438 226.335938 238.785156 C 225.945312 239.046875 225.582031 239.34375 225.25 239.675781 C 224.917969 240.007812 224.621094 240.371094 224.359375 240.761719 C 224.097656 241.152344 223.878906 241.5625 223.699219 242 C 223.519531 242.433594 223.382812 242.878906 223.292969 243.339844 C 223.199219 243.800781 223.152344 244.265625 223.152344 244.738281 C 223.152344 245.207031 223.199219 245.671875 223.292969 246.132812 C 223.382812 246.59375 223.519531 247.042969 223.699219 247.476562 C 223.878906 247.910156 224.097656 248.324219 224.359375 248.714844 C 224.621094 249.105469 224.917969 249.464844 225.25 249.800781 C 225.582031 250.132812 225.945312 250.429688 226.335938 250.6875 C 226.726562 250.949219 227.136719 251.171875 227.574219 251.351562 C 228.007812 251.53125 228.453125 251.667969 228.914062 251.757812 C 229.375 251.851562 229.839844 251.894531 230.3125 251.894531 L 241.335938 251.894531 C 241.804688 251.894531 242.269531 251.851562 242.730469 251.757812 C 243.191406 251.667969 243.640625 251.53125 244.074219 251.351562 C 244.507812 251.171875 244.921875 250.949219 245.3125 250.6875 C 245.703125 250.429688 246.0625 250.132812 246.398438 249.800781 C 246.730469 249.464844 247.027344 249.105469 247.285156 248.714844 C 247.546875 248.324219 247.769531 247.910156 247.949219 247.476562 C 248.128906 247.042969 248.265625 246.59375 248.355469 246.132812 C 248.449219 245.671875 248.492188 245.207031 248.492188 244.738281 C 248.492188 244.265625 248.449219 243.800781 248.355469 243.339844 C 248.265625 242.878906 248.128906 242.433594 247.949219 242 C 247.769531 241.5625 247.546875 241.152344 247.285156 240.761719 C 247.027344 240.371094 246.730469 240.007812 246.398438 239.675781 C 246.0625 239.34375 245.703125 239.046875 245.3125 238.785156 C 244.921875 238.523438 244.507812 238.304688 244.074219 238.125 C 243.640625 237.945312 243.191406 237.808594 242.730469 237.71875 C 242.269531 237.625 241.804688 237.578125 241.335938 237.578125 Z M 241.335938 237.578125 "/><path style=" stroke:none;fill-rule:nonzero;fill:#212529;fill-opacity:1;" d="M 71.582031 242.75 C 70.835938 242.75 70.097656 242.789062 69.355469 242.859375 C 68.617188 242.933594 67.882812 243.042969 67.152344 243.1875 C 66.425781 243.332031 65.707031 243.511719 64.992188 243.726562 C 64.28125 243.945312 63.585938 244.195312 62.898438 244.476562 C 62.210938 244.761719 61.539062 245.082031 60.882812 245.429688 C 60.230469 245.78125 59.59375 246.164062 58.972656 246.574219 C 58.355469 246.988281 57.761719 247.429688 57.1875 247.902344 C 56.613281 248.375 56.0625 248.871094 55.535156 249.398438 C 55.011719 249.921875 54.511719 250.472656 54.039062 251.046875 C 53.570312 251.621094 53.125 252.21875 52.714844 252.835938 C 52.300781 253.453125 51.917969 254.089844 51.570312 254.746094 C 51.21875 255.402344 50.902344 256.070312 50.617188 256.757812 C 50.332031 257.445312 50.082031 258.144531 49.867188 258.855469 C 49.652344 259.566406 49.472656 260.285156 49.324219 261.015625 C 49.179688 261.746094 49.070312 262.480469 49 263.21875 C 48.925781 263.957031 48.890625 264.699219 48.890625 265.441406 C 48.890625 266.183594 48.925781 266.925781 49 267.667969 C 49.070312 268.40625 49.179688 269.140625 49.324219 269.867188 C 49.472656 270.597656 49.652344 271.316406 49.867188 272.027344 C 50.082031 272.742188 50.332031 273.4375 50.617188 274.125 C 50.902344 274.8125 51.21875 275.484375 51.570312 276.140625 C 51.917969 276.792969 52.300781 277.429688 52.714844 278.046875 C 53.125 278.667969 53.570312 279.261719 54.039062 279.835938 C 54.511719 280.410156 55.011719 280.960938 55.535156 281.488281 C 56.0625 282.011719 56.613281 282.511719 57.1875 282.984375 C 57.761719 283.453125 58.355469 283.894531 58.972656 284.308594 C 59.59375 284.722656 60.230469 285.105469 60.882812 285.453125 C 61.539062 285.804688 62.210938 286.121094 62.898438 286.40625 C 63.585938 286.691406 64.28125 286.941406 64.992188 287.15625 C 65.707031 287.371094 66.425781 287.550781 67.152344 287.699219 C 67.882812 287.84375 68.617188 287.953125 69.355469 288.023438 C 70.097656 288.097656 70.835938 288.132812 71.582031 288.132812 C 72.324219 288.132812 73.066406 288.097656 73.804688 288.023438 C 74.542969 287.953125 75.277344 287.84375 76.007812 287.699219 C 76.738281 287.550781 77.457031 287.371094 78.167969 287.15625 C 78.878906 286.941406 79.578125 286.691406 80.265625 286.40625 C 80.949219 286.121094 81.621094 285.804688 82.277344 285.453125 C 82.933594 285.105469 83.570312 284.722656 84.1875 284.308594 C 84.804688 283.894531 85.402344 283.453125 85.976562 282.984375 C 86.550781 282.511719 87.101562 282.011719 87.625 281.488281 C 88.152344 280.960938 88.648438 280.410156 89.121094 279.835938 C 89.59375 279.261719 90.035156 278.667969 90.449219 278.046875 C 90.859375 277.429688 91.242188 276.792969 91.59375 276.140625 C 91.941406 275.484375 92.261719 274.8125 92.542969 274.125 C 92.828125 273.4375 93.078125 272.742188 93.296875 272.027344 C 93.511719 271.316406 93.691406 270.597656 93.835938 269.867188 C 93.980469 269.140625 94.089844 268.40625 94.164062 267.667969 C 94.234375 266.925781 94.273438 266.183594 94.273438 265.441406 C 94.269531 264.699219 94.234375 263.957031 94.160156 263.21875 C 94.085938 262.480469 93.976562 261.746094 93.832031 261.019531 C 93.683594 260.289062 93.503906 259.570312 93.285156 258.859375 C 93.070312 258.148438 92.820312 257.449219 92.535156 256.765625 C 92.25 256.078125 91.933594 255.40625 91.582031 254.753906 C 91.230469 254.097656 90.851562 253.460938 90.4375 252.84375 C 90.023438 252.226562 89.582031 251.632812 89.109375 251.058594 C 88.640625 250.484375 88.140625 249.933594 87.617188 249.40625 C 87.089844 248.882812 86.539062 248.382812 85.964844 247.914062 C 85.390625 247.441406 84.796875 247 84.179688 246.585938 C 83.5625 246.171875 82.925781 245.792969 82.269531 245.441406 C 81.617188 245.089844 80.945312 244.773438 80.257812 244.488281 C 79.574219 244.203125 78.875 243.953125 78.164062 243.734375 C 77.453125 243.519531 76.734375 243.339844 76.003906 243.191406 C 75.277344 243.046875 74.542969 242.9375 73.804688 242.863281 C 73.066406 242.789062 72.324219 242.753906 71.582031 242.75 Z M 71.582031 273.816406 C 71.03125 273.816406 70.488281 273.761719 69.945312 273.65625 C 69.40625 273.550781 68.882812 273.390625 68.375 273.179688 C 67.867188 272.96875 67.386719 272.710938 66.929688 272.40625 C 66.472656 272.101562 66.046875 271.753906 65.660156 271.363281 C 65.269531 270.976562 64.921875 270.550781 64.617188 270.09375 C 64.3125 269.636719 64.054688 269.15625 63.84375 268.648438 C 63.632812 268.140625 63.472656 267.617188 63.367188 267.074219 C 63.257812 266.535156 63.207031 265.992188 63.207031 265.441406 C 63.207031 264.890625 63.257812 264.347656 63.367188 263.808594 C 63.472656 263.269531 63.632812 262.746094 63.84375 262.238281 C 64.054688 261.730469 64.3125 261.246094 64.617188 260.789062 C 64.921875 260.332031 65.269531 259.910156 65.660156 259.519531 C 66.046875 259.132812 66.472656 258.785156 66.929688 258.480469 C 67.386719 258.171875 67.867188 257.914062 68.375 257.703125 C 68.882812 257.496094 69.40625 257.335938 69.945312 257.226562 C 70.488281 257.121094 71.03125 257.066406 71.582031 257.066406 C 72.132812 257.066406 72.675781 257.121094 73.214844 257.226562 C 73.753906 257.335938 74.277344 257.496094 74.785156 257.703125 C 75.292969 257.914062 75.777344 258.171875 76.234375 258.480469 C 76.691406 258.785156 77.113281 259.132812 77.503906 259.519531 C 77.890625 259.910156 78.238281 260.332031 78.542969 260.789062 C 78.851562 261.246094 79.109375 261.730469 79.320312 262.238281 C 79.527344 262.746094 79.6875 263.269531 79.796875 263.808594 C 79.902344 264.347656 79.957031 264.890625 79.957031 265.441406 C 79.953125 265.992188 79.898438 266.535156 79.792969 267.074219 C 79.683594 267.613281 79.523438 268.136719 79.3125 268.644531 C 79.101562 269.152344 78.84375 269.632812 78.539062 270.089844 C 78.234375 270.546875 77.886719 270.96875 77.496094 271.359375 C 77.109375 271.746094 76.6875 272.09375 76.230469 272.398438 C 75.773438 272.707031 75.289062 272.964844 74.78125 273.175781 C 74.277344 273.386719 73.753906 273.546875 73.214844 273.652344 C 72.675781 273.761719 72.128906 273.816406 71.582031 273.816406 Z M 71.582031 273.816406 "/><path style=" stroke:none;fill-rule:nonzero;fill:#212529;fill-opacity:1;" d="M 114.53125 73.371094 L 28.632812 73.371094 C 28.164062 73.371094 27.695312 73.417969 27.234375 73.511719 C 26.773438 73.601562 26.328125 73.738281 25.894531 73.917969 C 25.457031 74.097656 25.046875 74.316406 24.65625 74.578125 C 24.265625 74.839844 23.902344 75.136719 23.570312 75.46875 C 23.238281 75.800781 22.941406 76.164062 22.679688 76.554688 C 22.417969 76.945312 22.199219 77.355469 22.019531 77.792969 C 21.839844 78.226562 21.703125 78.671875 21.613281 79.132812 C 21.519531 79.59375 21.472656 80.0625 21.472656 80.53125 L 21.472656 111.363281 C 21.472656 111.835938 21.519531 112.300781 21.613281 112.761719 C 21.703125 113.222656 21.839844 113.667969 22.019531 114.105469 C 22.199219 114.539062 22.417969 114.949219 22.679688 115.339844 C 22.941406 115.730469 23.238281 116.09375 23.570312 116.425781 C 23.902344 116.757812 24.265625 117.054688 24.65625 117.316406 C 25.046875 117.578125 25.457031 117.796875 25.894531 117.976562 C 26.328125 118.15625 26.773438 118.292969 27.234375 118.386719 C 27.695312 118.476562 28.164062 118.523438 28.632812 118.523438 L 114.53125 118.523438 C 115 118.523438 115.464844 118.476562 115.925781 118.386719 C 116.386719 118.292969 116.835938 118.15625 117.269531 117.976562 C 117.703125 117.796875 118.117188 117.578125 118.507812 117.316406 C 118.898438 117.054688 119.257812 116.757812 119.589844 116.425781 C 119.921875 116.09375 120.21875 115.730469 120.480469 115.339844 C 120.742188 114.949219 120.960938 114.539062 121.144531 114.105469 C 121.324219 113.667969 121.457031 113.222656 121.550781 112.761719 C 121.640625 112.300781 121.6875 111.835938 121.6875 111.363281 L 121.6875 80.53125 C 121.6875 80.0625 121.640625 79.59375 121.550781 79.132812 C 121.457031 78.671875 121.324219 78.226562 121.144531 77.792969 C 120.960938 77.355469 120.742188 76.945312 120.480469 76.554688 C 120.21875 76.164062 119.921875 75.800781 119.589844 75.46875 C 119.257812 75.136719 118.898438 74.839844 118.507812 74.578125 C 118.117188 74.316406 117.703125 74.097656 117.269531 73.917969 C 116.835938 73.738281 116.386719 73.601562 115.925781 73.511719 C 115.464844 73.417969 115 73.371094 114.53125 73.371094 Z M 107.371094 104.207031 L 35.789062 104.207031 L 35.789062 87.6875 L 107.371094 87.6875 Z M 107.371094 104.207031 "/><path style=" stroke:none;fill-rule:nonzero;fill:#212529;fill-opacity:1;" d="M 114.53125 149.875 L 28.632812 149.875 C 28.164062 149.875 27.695312 149.921875 27.234375 150.011719 C 26.773438 150.105469 26.328125 150.238281 25.894531 150.417969 C 25.457031 150.597656 25.046875 150.820312 24.65625 151.082031 C 24.265625 151.34375 23.902344 151.640625 23.570312 151.972656 C 23.238281 152.304688 22.941406 152.664062 22.679688 153.054688 C 22.417969 153.445312 22.199219 153.859375 22.019531 154.292969 C 21.839844 154.726562 21.703125 155.175781 21.613281 155.636719 C 21.519531 156.097656 21.472656 156.5625 21.472656 157.03125 C 21.472656 157.503906 21.519531 157.96875 21.613281 158.429688 C 21.703125 158.890625 21.839844 159.339844 22.019531 159.773438 C 22.199219 160.207031 22.417969 160.617188 22.679688 161.007812 C 22.941406 161.402344 23.238281 161.761719 23.570312 162.09375 C 23.902344 162.425781 24.265625 162.722656 24.65625 162.984375 C 25.046875 163.246094 25.457031 163.464844 25.894531 163.644531 C 26.328125 163.824219 26.773438 163.960938 27.234375 164.054688 C 27.695312 164.144531 28.164062 164.191406 28.632812 164.191406 L 114.53125 164.191406 C 115 164.191406 115.464844 164.144531 115.925781 164.054688 C 116.386719 163.960938 116.835938 163.824219 117.269531 163.644531 C 117.703125 163.464844 118.117188 163.246094 118.507812 162.984375 C 118.898438 162.722656 119.257812 162.425781 119.589844 162.09375 C 119.921875 161.761719 120.21875 161.402344 120.480469 161.007812 C 120.742188 160.617188 120.960938 160.207031 121.144531 159.773438 C 121.324219 159.339844 121.457031 158.890625 121.550781 158.429688 C 121.640625 157.96875 121.6875 157.503906 121.6875 157.03125 C 121.6875 156.5625 121.640625 156.097656 121.550781 155.636719 C 121.457031 155.175781 121.324219 154.726562 121.144531 154.292969 C 120.960938 153.859375 120.742188 153.445312 120.480469 153.054688 C 120.21875 152.664062 119.921875 152.304688 119.589844 151.972656 C 119.257812 151.640625 118.898438 151.34375 118.507812 151.082031 C 118.117188 150.820312 117.703125 150.597656 117.269531 150.417969 C 116.835938 150.238281 116.386719 150.105469 115.925781 150.011719 C 115.464844 149.921875 115 149.875 114.53125 149.875 Z M 114.53125 149.875 "/></g></svg>