<svg xmlns="http://www.w3.org/2000/svg" xmlns:xlink="http://www.w3.org/1999/xlink" width="500" zoomAndPan="magnify" viewBox="0 0 375 374.999991" height="500" preserveAspectRatio="xMidYMid meet" version="1.2"><defs><clipPath id="287b864121"><path d="M 26 51.09375 L 349 51.09375 L 349 273 L 26 273 Z M 26 51.09375 "/></clipPath></defs><g id="8fc3b345b9"><g clip-rule="nonzero" clip-path="url(#287b864121)"><path style=" stroke:none;fill-rule:nonzero;fill:#212529;fill-opacity:1;" d="M 326.683594 247.691406 C 326.683594 248.96875 325.648438 250.042969 324.316406 250.042969 L 50.683594 250.042969 C 49.367188 250.042969 48.304688 248.96875 48.304688 247.691406 L 48.304688 74.667969 C 48.304688 73.355469 49.367188 72.3125 50.6875 72.3125 L 324.316406 72.3125 C 325.652344 72.3125 326.6875 73.355469 326.6875 74.667969 Z M 326.742188 51.105469 L 48.257812 51.105469 C 36.089844 51.105469 26.214844 60.9375 26.214844 73.0625 L 26.214844 272.550781 L 348.796875 272.550781 L 348.796875 73.0625 C 348.796875 60.941406 338.917969 51.109375 326.75 51.109375 "/></g><path style=" stroke:none;fill-rule:nonzero;fill:#212529;fill-opacity:1;" d="M 373.882812 286.046875 C 374.398438 286.046875 374.816406 286.507812 374.738281 287.023438 C 373.34375 296.402344 368.902344 304.808594 362.472656 311.21875 C 354.585938 319.066406 343.710938 323.90625 331.683594 323.90625 L 43.316406 323.90625 C 21.480469 323.90625 3.398438 307.894531 0.261719 287.023438 C 0.1875 286.507812 0.589844 286.046875 1.105469 286.046875 L 144.113281 286.046875 C 144.582031 286.046875 144.960938 286.425781 144.960938 286.882812 C 144.960938 292.023438 149.140625 296.203125 154.300781 296.203125 L 220.71875 296.203125 C 225.855469 296.203125 230.058594 292.003906 230.058594 286.882812 C 230.058594 286.425781 230.4375 286.046875 230.894531 286.046875 L 373.882812 286.046875 "/></g></svg>