<svg xmlns="http://www.w3.org/2000/svg" xmlns:xlink="http://www.w3.org/1999/xlink" width="500" zoomAndPan="magnify" viewBox="0 0 375 374.999991" height="500" preserveAspectRatio="xMidYMid meet" version="1.2"><defs><clipPath id="2a4daacc03"><path d="M 0 48.75 L 375 48.75 L 375 326.25 L 0 326.25 Z M 0 48.75 "/></clipPath></defs><g id="306058c873"><g clip-rule="nonzero" clip-path="url(#2a4daacc03)"><path style=" stroke:none;fill-rule:nonzero;fill:#212529;fill-opacity:1;" d="M 354.269531 48.816406 L 20.734375 48.816406 C 9.285156 48.816406 0 58.101562 0 69.550781 L 0 263.199219 C 0 274.652344 9.285156 283.9375 20.734375 283.9375 L 147.550781 283.9375 C 151.109375 283.9375 153.695312 287.320312 152.761719 290.753906 C 151.828125 294.1875 150.6875 297.949219 149.710938 300.027344 C 148.003906 303.671875 126.300781 314.9375 113.277344 321.4375 C 110.652344 322.75 111.738281 326.195312 114.773438 326.195312 L 260.234375 326.195312 C 263.273438 326.195312 264.355469 322.742188 261.734375 321.4375 C 248.710938 314.9375 227.003906 303.675781 225.296875 300.027344 C 224.328125 297.949219 223.222656 294.34375 222.246094 290.753906 C 221.273438 287.160156 223.902344 283.9375 227.457031 283.9375 L 354.273438 283.9375 C 365.722656 283.9375 375.007812 274.652344 375.007812 263.199219 L 375.007812 69.550781 C 375.007812 58.101562 365.722656 48.816406 354.273438 48.816406 Z M 360.792969 263.199219 C 360.792969 266.800781 357.875 269.722656 354.269531 269.722656 L 20.734375 269.722656 C 17.132812 269.722656 14.210938 266.804688 14.210938 263.199219 L 14.210938 69.550781 C 14.210938 65.953125 17.128906 63.027344 20.734375 63.027344 L 354.269531 63.027344 C 357.871094 63.027344 360.792969 65.945312 360.792969 69.550781 Z M 360.792969 263.199219 "/></g></g></svg>